<mxfile host="app.diagrams.net" modified="2023-08-01T01:21:03.118Z" agent="Mozilla/5.0 (Windows NT 10.0; Win64; x64) AppleWebKit/537.36 (KHTML, like Gecko) Chrome/115.0.0.0 Safari/537.36" etag="r-invBfIazayhJHvIeZ6" version="21.6.6" type="device">
  <diagram name="페이지-1" id="7Ij8uKjP76WhhLE6ZRci">
    <mxGraphModel dx="3585" dy="3144" grid="1" gridSize="10" guides="1" tooltips="1" connect="1" arrows="1" fold="1" page="1" pageScale="1" pageWidth="827" pageHeight="1169" background="#FFFFFF" math="0" shadow="0">
      <root>
        <mxCell id="0" />
        <mxCell id="1" parent="0" />
        <mxCell id="FlCNs_IBPol1UIJCw7tp-71" value="" style="rounded=0;whiteSpace=wrap;html=1;strokeColor=#ffffff;fontColor=#000000;" parent="1" vertex="1">
          <mxGeometry x="544" y="-1169" width="1110" height="919" as="geometry" />
        </mxCell>
        <mxCell id="n9egwIg7zSg5DTkrcZat-1" value="" style="group" parent="1" vertex="1" connectable="0">
          <mxGeometry x="1185" y="-1169" width="110" height="60" as="geometry" />
        </mxCell>
        <mxCell id="VzTFzCelFTvTFUtPNzLl-1" style="edgeStyle=orthogonalEdgeStyle;rounded=0;orthogonalLoop=1;jettySize=auto;html=1;exitX=0;exitY=0.5;exitDx=0;exitDy=0;entryX=1;entryY=0.5;entryDx=0;entryDy=0;fontStyle=1;strokeWidth=3;" parent="n9egwIg7zSg5DTkrcZat-1" edge="1">
          <mxGeometry relative="1" as="geometry">
            <mxPoint x="50" y="14" as="sourcePoint" />
            <mxPoint y="14" as="targetPoint" />
          </mxGeometry>
        </mxCell>
        <mxCell id="VzTFzCelFTvTFUtPNzLl-2" style="edgeStyle=orthogonalEdgeStyle;rounded=0;orthogonalLoop=1;jettySize=auto;html=1;entryX=1;entryY=0.5;entryDx=0;entryDy=0;fontStyle=1;strokeWidth=3;strokeColor=#FC2821;" parent="n9egwIg7zSg5DTkrcZat-1" edge="1">
          <mxGeometry relative="1" as="geometry">
            <mxPoint x="50" y="44" as="sourcePoint" />
            <mxPoint x="2.2737367544323206e-13" y="44" as="targetPoint" />
          </mxGeometry>
        </mxCell>
        <mxCell id="VzTFzCelFTvTFUtPNzLl-4" value="참" style="text;html=1;strokeColor=none;fillColor=none;align=center;verticalAlign=middle;whiteSpace=wrap;rounded=0;fontSize=20;fontStyle=1" parent="n9egwIg7zSg5DTkrcZat-1" vertex="1">
          <mxGeometry x="50" width="60" height="30" as="geometry" />
        </mxCell>
        <mxCell id="VzTFzCelFTvTFUtPNzLl-5" value="거짓" style="text;html=1;strokeColor=none;fillColor=none;align=center;verticalAlign=middle;whiteSpace=wrap;rounded=0;fontSize=20;fontStyle=1" parent="n9egwIg7zSg5DTkrcZat-1" vertex="1">
          <mxGeometry x="50" y="30" width="60" height="30" as="geometry" />
        </mxCell>
        <mxCell id="n9egwIg7zSg5DTkrcZat-3" value="Select 등록" style="rounded=0;whiteSpace=wrap;fontStyle=1;html=1;strokeWidth=2;fontSize=16;fontFamily=Helvetica;" parent="1" vertex="1">
          <mxGeometry x="786.0000000000002" y="-1090" width="103" height="76" as="geometry" />
        </mxCell>
        <mxCell id="n9egwIg7zSg5DTkrcZat-5" value="Select" style="rhombus;whiteSpace=wrap;html=1;aspect=fixed;fontStyle=1;strokeWidth=2;fontSize=16;" parent="1" vertex="1">
          <mxGeometry x="785" y="-960" width="105" height="100" as="geometry" />
        </mxCell>
        <mxCell id="n9egwIg7zSg5DTkrcZat-6" value="Disconnect&lt;br&gt;And End Program" style="rounded=0;whiteSpace=wrap;fontStyle=1;html=1;strokeWidth=2;fontSize=16;" parent="1" vertex="1">
          <mxGeometry x="602.0000000000002" y="-948" width="103" height="76" as="geometry" />
        </mxCell>
        <mxCell id="n9egwIg7zSg5DTkrcZat-9" style="edgeStyle=orthogonalEdgeStyle;rounded=0;orthogonalLoop=1;jettySize=auto;html=1;exitX=0;exitY=0.5;exitDx=0;exitDy=0;fontStyle=1;strokeWidth=3;strokeColor=#FC2821;entryX=1;entryY=0.5;entryDx=0;entryDy=0;" parent="1" source="n9egwIg7zSg5DTkrcZat-5" target="n9egwIg7zSg5DTkrcZat-6" edge="1">
          <mxGeometry relative="1" as="geometry">
            <mxPoint x="607.0000000000002" y="-810" as="sourcePoint" />
            <mxPoint x="687" y="-910" as="targetPoint" />
          </mxGeometry>
        </mxCell>
        <mxCell id="n9egwIg7zSg5DTkrcZat-10" value="FD_ISSET&lt;br style=&quot;font-size: 14px;&quot;&gt;is accept" style="rhombus;whiteSpace=wrap;html=1;aspect=fixed;fontStyle=1;strokeWidth=2;fontSize=14;fontColor=#000000;" parent="1" vertex="1">
          <mxGeometry x="785" y="-810" width="105" height="100" as="geometry" />
        </mxCell>
        <mxCell id="n9egwIg7zSg5DTkrcZat-11" value="FD_ISSET&lt;br style=&quot;font-size: 14px;&quot;&gt;is Recv" style="rhombus;whiteSpace=wrap;html=1;aspect=fixed;fontStyle=1;strokeWidth=2;fontSize=14;" parent="1" vertex="1">
          <mxGeometry x="967" y="-810" width="105" height="100" as="geometry" />
        </mxCell>
        <mxCell id="n9egwIg7zSg5DTkrcZat-13" style="edgeStyle=orthogonalEdgeStyle;rounded=0;orthogonalLoop=1;jettySize=auto;html=1;exitX=0.5;exitY=1;exitDx=0;exitDy=0;entryX=0.5;entryY=0;entryDx=0;entryDy=0;fontStyle=1;strokeWidth=3;" parent="1" source="n9egwIg7zSg5DTkrcZat-5" target="n9egwIg7zSg5DTkrcZat-10" edge="1">
          <mxGeometry relative="1" as="geometry">
            <mxPoint x="647" y="-810" as="sourcePoint" />
            <mxPoint x="597" y="-810" as="targetPoint" />
          </mxGeometry>
        </mxCell>
        <mxCell id="n9egwIg7zSg5DTkrcZat-15" style="edgeStyle=orthogonalEdgeStyle;rounded=0;orthogonalLoop=1;jettySize=auto;html=1;exitX=1;exitY=0.5;exitDx=0;exitDy=0;entryX=0;entryY=0.5;entryDx=0;entryDy=0;fontStyle=1;strokeWidth=3;strokeColor=#FC2821;" parent="1" source="n9egwIg7zSg5DTkrcZat-10" target="n9egwIg7zSg5DTkrcZat-11" edge="1">
          <mxGeometry relative="1" as="geometry">
            <mxPoint x="897.0000000000002" y="-680" as="sourcePoint" />
            <mxPoint x="697.0000000000002" y="-680" as="targetPoint" />
          </mxGeometry>
        </mxCell>
        <mxCell id="n9egwIg7zSg5DTkrcZat-16" value="Accept" style="rounded=0;whiteSpace=wrap;fontStyle=1;html=1;strokeWidth=2;fontSize=16;" parent="1" vertex="1">
          <mxGeometry x="785.0000000000002" y="-660" width="103" height="76" as="geometry" />
        </mxCell>
        <mxCell id="n9egwIg7zSg5DTkrcZat-17" style="edgeStyle=orthogonalEdgeStyle;rounded=0;orthogonalLoop=1;jettySize=auto;html=1;exitX=0.5;exitY=1;exitDx=0;exitDy=0;entryX=0.5;entryY=0;entryDx=0;entryDy=0;fontStyle=1;strokeWidth=3;" parent="1" source="n9egwIg7zSg5DTkrcZat-10" target="n9egwIg7zSg5DTkrcZat-16" edge="1">
          <mxGeometry relative="1" as="geometry">
            <mxPoint x="777" y="-680" as="sourcePoint" />
            <mxPoint x="727" y="-680" as="targetPoint" />
          </mxGeometry>
        </mxCell>
        <mxCell id="n9egwIg7zSg5DTkrcZat-18" style="edgeStyle=orthogonalEdgeStyle;rounded=0;orthogonalLoop=1;jettySize=auto;html=1;exitX=0.5;exitY=1;exitDx=0;exitDy=0;entryX=0.5;entryY=0;entryDx=0;entryDy=0;fontStyle=1;strokeWidth=3;" parent="1" source="n9egwIg7zSg5DTkrcZat-16" target="n9egwIg7zSg5DTkrcZat-19" edge="1">
          <mxGeometry relative="1" as="geometry">
            <mxPoint x="767" y="-530" as="sourcePoint" />
            <mxPoint x="717" y="-530" as="targetPoint" />
          </mxGeometry>
        </mxCell>
        <mxCell id="n9egwIg7zSg5DTkrcZat-19" value="Send Command Request" style="rounded=0;whiteSpace=wrap;fontStyle=1;html=1;strokeWidth=2;fontSize=16;" parent="1" vertex="1">
          <mxGeometry x="785.0000000000002" y="-510" width="103" height="76" as="geometry" />
        </mxCell>
        <mxCell id="n9egwIg7zSg5DTkrcZat-20" value="Add Information&lt;br&gt;(Sock, Addr)" style="rounded=0;whiteSpace=wrap;fontStyle=1;html=1;strokeWidth=2;fontSize=16;" parent="1" vertex="1">
          <mxGeometry x="785.0000000000002" y="-380" width="103" height="76" as="geometry" />
        </mxCell>
        <mxCell id="n9egwIg7zSg5DTkrcZat-21" style="edgeStyle=orthogonalEdgeStyle;rounded=0;orthogonalLoop=1;jettySize=auto;html=1;exitX=0.5;exitY=1;exitDx=0;exitDy=0;entryX=0.5;entryY=0;entryDx=0;entryDy=0;fontStyle=1;strokeWidth=3;" parent="1" source="n9egwIg7zSg5DTkrcZat-19" target="n9egwIg7zSg5DTkrcZat-20" edge="1">
          <mxGeometry relative="1" as="geometry">
            <mxPoint x="767" y="-460" as="sourcePoint" />
            <mxPoint x="717" y="-460" as="targetPoint" />
          </mxGeometry>
        </mxCell>
        <mxCell id="n9egwIg7zSg5DTkrcZat-23" style="edgeStyle=orthogonalEdgeStyle;rounded=0;orthogonalLoop=1;jettySize=auto;html=1;exitX=0.5;exitY=1;exitDx=0;exitDy=0;entryX=0.5;entryY=0;entryDx=0;entryDy=0;fontStyle=1;strokeWidth=3;" parent="1" source="n9egwIg7zSg5DTkrcZat-3" target="n9egwIg7zSg5DTkrcZat-5" edge="1">
          <mxGeometry relative="1" as="geometry">
            <mxPoint x="577" y="-1010" as="sourcePoint" />
            <mxPoint x="527" y="-1010" as="targetPoint" />
          </mxGeometry>
        </mxCell>
        <mxCell id="n9egwIg7zSg5DTkrcZat-25" value="Packet&lt;br style=&quot;font-size: 14px;&quot;&gt;Command is&lt;br style=&quot;font-size: 14px;&quot;&gt;request" style="rhombus;whiteSpace=wrap;html=1;aspect=fixed;fontStyle=1;strokeWidth=2;fontSize=14;" parent="1" vertex="1">
          <mxGeometry x="1117" y="-810" width="105" height="100" as="geometry" />
        </mxCell>
        <mxCell id="n9egwIg7zSg5DTkrcZat-26" style="edgeStyle=orthogonalEdgeStyle;rounded=0;orthogonalLoop=1;jettySize=auto;html=1;exitX=1;exitY=0.5;exitDx=0;exitDy=0;entryX=0;entryY=0.5;entryDx=0;entryDy=0;fontStyle=1;strokeWidth=3;" parent="1" source="n9egwIg7zSg5DTkrcZat-11" target="n9egwIg7zSg5DTkrcZat-25" edge="1">
          <mxGeometry relative="1" as="geometry">
            <mxPoint x="1027" y="-850" as="sourcePoint" />
            <mxPoint x="977" y="-850" as="targetPoint" />
          </mxGeometry>
        </mxCell>
        <mxCell id="n9egwIg7zSg5DTkrcZat-28" value="Packet&lt;br style=&quot;font-size: 14px;&quot;&gt;Category" style="rhombus;whiteSpace=wrap;html=1;aspect=fixed;fontStyle=1;strokeWidth=2;fontSize=14;" parent="1" vertex="1">
          <mxGeometry x="1267" y="-810" width="105" height="100" as="geometry" />
        </mxCell>
        <mxCell id="n9egwIg7zSg5DTkrcZat-29" value="Disconnect&lt;br&gt;And Delete Info" style="rounded=0;whiteSpace=wrap;fontStyle=1;html=1;strokeWidth=2;fontSize=16;" parent="1" vertex="1">
          <mxGeometry x="1117.0000000000002" y="-1024" width="103" height="76" as="geometry" />
        </mxCell>
        <mxCell id="n9egwIg7zSg5DTkrcZat-30" style="edgeStyle=orthogonalEdgeStyle;rounded=0;orthogonalLoop=1;jettySize=auto;html=1;exitX=1;exitY=0.5;exitDx=0;exitDy=0;entryX=0;entryY=0.5;entryDx=0;entryDy=0;fontStyle=1;strokeWidth=3;" parent="1" source="n9egwIg7zSg5DTkrcZat-25" target="n9egwIg7zSg5DTkrcZat-28" edge="1">
          <mxGeometry relative="1" as="geometry">
            <mxPoint x="1007" y="-870" as="sourcePoint" />
            <mxPoint x="957" y="-870" as="targetPoint" />
          </mxGeometry>
        </mxCell>
        <mxCell id="n9egwIg7zSg5DTkrcZat-35" style="edgeStyle=orthogonalEdgeStyle;rounded=0;orthogonalLoop=1;jettySize=auto;html=1;exitX=0.5;exitY=0;exitDx=0;exitDy=0;entryX=1;entryY=0.5;entryDx=0;entryDy=0;fontStyle=1;strokeWidth=3;" parent="1" source="n9egwIg7zSg5DTkrcZat-29" target="n9egwIg7zSg5DTkrcZat-3" edge="1">
          <mxGeometry relative="1" as="geometry">
            <mxPoint x="947" y="-1030" as="sourcePoint" />
            <mxPoint x="897" y="-1030" as="targetPoint" />
          </mxGeometry>
        </mxCell>
        <mxCell id="n9egwIg7zSg5DTkrcZat-36" value="Device_TIFD" style="edgeStyle=orthogonalEdgeStyle;rounded=0;orthogonalLoop=1;jettySize=auto;html=1;exitX=0.5;exitY=1;exitDx=0;exitDy=0;entryX=0.5;entryY=0;entryDx=0;entryDy=0;fontStyle=1;strokeWidth=3;fontSize=12;" parent="1" source="n9egwIg7zSg5DTkrcZat-28" target="n9egwIg7zSg5DTkrcZat-38" edge="1">
          <mxGeometry relative="1" as="geometry">
            <mxPoint x="1257" y="-660" as="sourcePoint" />
            <mxPoint x="1207" y="-660" as="targetPoint" />
            <mxPoint as="offset" />
          </mxGeometry>
        </mxCell>
        <mxCell id="n9egwIg7zSg5DTkrcZat-37" style="edgeStyle=orthogonalEdgeStyle;rounded=0;orthogonalLoop=1;jettySize=auto;html=1;exitX=0;exitY=0.5;exitDx=0;exitDy=0;entryX=0;entryY=0.5;entryDx=0;entryDy=0;fontStyle=1;strokeWidth=3;" parent="1" source="n9egwIg7zSg5DTkrcZat-20" target="n9egwIg7zSg5DTkrcZat-3" edge="1">
          <mxGeometry relative="1" as="geometry">
            <mxPoint x="467" y="-510" as="sourcePoint" />
            <mxPoint x="417" y="-510" as="targetPoint" />
            <Array as="points">
              <mxPoint x="577" y="-342" />
              <mxPoint x="577" y="-1052" />
            </Array>
          </mxGeometry>
        </mxCell>
        <mxCell id="n9egwIg7zSg5DTkrcZat-38" value="Handle Tifd Connect" style="rounded=0;whiteSpace=wrap;fontStyle=1;html=1;strokeWidth=2;fontSize=16;" parent="1" vertex="1">
          <mxGeometry x="1269.0000000000002" y="-630" width="103" height="76" as="geometry" />
        </mxCell>
        <mxCell id="n9egwIg7zSg5DTkrcZat-39" value="Handle Tird Connect" style="rounded=0;whiteSpace=wrap;fontStyle=1;html=1;strokeWidth=2;fontSize=16;" parent="1" vertex="1">
          <mxGeometry x="1487.0000000000002" y="-798" width="103" height="76" as="geometry" />
        </mxCell>
        <mxCell id="n9egwIg7zSg5DTkrcZat-40" value="Device_TIRD" style="edgeStyle=orthogonalEdgeStyle;rounded=0;orthogonalLoop=1;jettySize=auto;html=1;exitX=1;exitY=0.5;exitDx=0;exitDy=0;entryX=0;entryY=0.5;entryDx=0;entryDy=0;fontStyle=1;strokeWidth=3;fontSize=12;" parent="1" source="n9egwIg7zSg5DTkrcZat-28" target="n9egwIg7zSg5DTkrcZat-39" edge="1">
          <mxGeometry x="-0.2174" relative="1" as="geometry">
            <mxPoint x="1357" y="-930" as="sourcePoint" />
            <mxPoint x="1307" y="-930" as="targetPoint" />
            <mxPoint as="offset" />
          </mxGeometry>
        </mxCell>
        <mxCell id="n9egwIg7zSg5DTkrcZat-42" value="&#xa;&lt;span style=&quot;color: rgb(0, 0, 0); font-family: Helvetica; font-size: 16px; font-style: normal; font-variant-ligatures: normal; font-variant-caps: normal; font-weight: 700; letter-spacing: normal; orphans: 2; text-align: center; text-indent: 0px; text-transform: none; widows: 2; word-spacing: 0px; -webkit-text-stroke-width: 0px; background-color: rgb(251, 251, 251); text-decoration-thickness: initial; text-decoration-style: initial; text-decoration-color: initial; float: none; display: inline !important;&quot;&gt;(TIM)&lt;/span&gt;&lt;br style=&quot;border-color: var(--border-color); color: rgb(0, 0, 0); font-family: Helvetica; font-size: 16px; font-style: normal; font-variant-ligatures: normal; font-variant-caps: normal; font-weight: 700; letter-spacing: normal; orphans: 2; text-align: center; text-indent: 0px; text-transform: none; widows: 2; word-spacing: 0px; -webkit-text-stroke-width: 0px; background-color: rgb(251, 251, 251); text-decoration-thickness: initial; text-decoration-style: initial; text-decoration-color: initial;&quot;&gt;&lt;span style=&quot;color: rgb(0, 0, 0); font-family: Helvetica; font-size: 16px; font-style: normal; font-variant-ligatures: normal; font-variant-caps: normal; font-weight: 700; letter-spacing: normal; orphans: 2; text-align: center; text-indent: 0px; text-transform: none; widows: 2; word-spacing: 0px; -webkit-text-stroke-width: 0px; background-color: rgb(251, 251, 251); text-decoration-thickness: initial; text-decoration-style: initial; text-decoration-color: initial; float: none; display: inline !important;&quot;&gt;Push New Session&lt;/span&gt;&#xa;&#xa;" style="rhombus;whiteSpace=wrap;html=1;aspect=fixed;fontStyle=1;strokeWidth=2;" parent="1" vertex="1">
          <mxGeometry x="1476" y="-651.52" width="125" height="119.05" as="geometry" />
        </mxCell>
        <mxCell id="n9egwIg7zSg5DTkrcZat-43" style="edgeStyle=orthogonalEdgeStyle;rounded=0;orthogonalLoop=1;jettySize=auto;html=1;exitX=0.5;exitY=1;exitDx=0;exitDy=0;entryX=0.5;entryY=0;entryDx=0;entryDy=0;fontStyle=1;strokeWidth=3;" parent="1" source="n9egwIg7zSg5DTkrcZat-39" target="n9egwIg7zSg5DTkrcZat-42" edge="1">
          <mxGeometry relative="1" as="geometry">
            <mxPoint x="1447" y="-690" as="sourcePoint" />
            <mxPoint x="1397" y="-690" as="targetPoint" />
          </mxGeometry>
        </mxCell>
        <mxCell id="n9egwIg7zSg5DTkrcZat-45" style="edgeStyle=orthogonalEdgeStyle;rounded=0;orthogonalLoop=1;jettySize=auto;html=1;exitX=1;exitY=0.5;exitDx=0;exitDy=0;entryX=0;entryY=0.5;entryDx=0;entryDy=0;fontStyle=1;strokeWidth=3;" parent="1" source="n9egwIg7zSg5DTkrcZat-38" target="n9egwIg7zSg5DTkrcZat-42" edge="1">
          <mxGeometry relative="1" as="geometry">
            <mxPoint x="1477" y="-620" as="sourcePoint" />
            <mxPoint x="1427" y="-620" as="targetPoint" />
          </mxGeometry>
        </mxCell>
        <mxCell id="n9egwIg7zSg5DTkrcZat-47" value="" style="ellipse;whiteSpace=wrap;html=1;strokeWidth=2;" parent="1" vertex="1">
          <mxGeometry x="1154.5" y="-896" width="30" height="30" as="geometry" />
        </mxCell>
        <mxCell id="n9egwIg7zSg5DTkrcZat-48" style="orthogonalLoop=1;jettySize=auto;html=1;exitX=0.5;exitY=0;exitDx=0;exitDy=0;entryX=0;entryY=0.5;entryDx=0;entryDy=0;fontStyle=1;strokeWidth=3;rounded=0;edgeStyle=orthogonalEdgeStyle;endArrow=none;endFill=0;strokeColor=#ff0000;" parent="1" source="n9egwIg7zSg5DTkrcZat-11" target="n9egwIg7zSg5DTkrcZat-47" edge="1">
          <mxGeometry relative="1" as="geometry">
            <mxPoint x="1052" y="-775" as="sourcePoint" />
            <mxPoint x="1027" y="-890" as="targetPoint" />
          </mxGeometry>
        </mxCell>
        <mxCell id="n9egwIg7zSg5DTkrcZat-49" style="orthogonalLoop=1;jettySize=auto;html=1;exitX=1;exitY=0.5;exitDx=0;exitDy=0;entryX=0.5;entryY=0;entryDx=0;entryDy=0;fontStyle=1;strokeWidth=3;rounded=0;edgeStyle=orthogonalEdgeStyle;endArrow=none;endFill=0;strokeColor=#ff0000;" parent="1" source="n9egwIg7zSg5DTkrcZat-47" target="n9egwIg7zSg5DTkrcZat-28" edge="1">
          <mxGeometry relative="1" as="geometry">
            <mxPoint x="1192" y="-735" as="sourcePoint" />
            <mxPoint x="1167" y="-850" as="targetPoint" />
          </mxGeometry>
        </mxCell>
        <mxCell id="n9egwIg7zSg5DTkrcZat-50" style="orthogonalLoop=1;jettySize=auto;html=1;exitX=0.5;exitY=0;exitDx=0;exitDy=0;entryX=0.5;entryY=1;entryDx=0;entryDy=0;fontStyle=1;strokeWidth=3;rounded=0;edgeStyle=orthogonalEdgeStyle;endArrow=none;endFill=0;strokeColor=#ff0000;" parent="1" source="n9egwIg7zSg5DTkrcZat-25" target="n9egwIg7zSg5DTkrcZat-47" edge="1">
          <mxGeometry relative="1" as="geometry">
            <mxPoint x="1082" y="-775" as="sourcePoint" />
            <mxPoint x="1057" y="-890" as="targetPoint" />
          </mxGeometry>
        </mxCell>
        <mxCell id="n9egwIg7zSg5DTkrcZat-51" style="edgeStyle=orthogonalEdgeStyle;rounded=0;orthogonalLoop=1;jettySize=auto;html=1;exitX=0.5;exitY=0;exitDx=0;exitDy=0;entryX=0.5;entryY=1;entryDx=0;entryDy=0;fontStyle=1;strokeWidth=3;" parent="1" source="n9egwIg7zSg5DTkrcZat-47" target="n9egwIg7zSg5DTkrcZat-29" edge="1">
          <mxGeometry relative="1" as="geometry">
            <mxPoint x="1137" y="-930" as="sourcePoint" />
            <mxPoint x="1087" y="-930" as="targetPoint" />
          </mxGeometry>
        </mxCell>
        <mxCell id="n9egwIg7zSg5DTkrcZat-52" style="edgeStyle=orthogonalEdgeStyle;rounded=0;orthogonalLoop=1;jettySize=auto;html=1;exitX=1;exitY=0.5;exitDx=0;exitDy=0;entryX=1;entryY=0.5;entryDx=0;entryDy=0;fontStyle=1;strokeWidth=3;strokeColor=#FC2821;" parent="1" source="n9egwIg7zSg5DTkrcZat-42" target="n9egwIg7zSg5DTkrcZat-29" edge="1">
          <mxGeometry relative="1" as="geometry">
            <mxPoint x="1627.0000000000002" y="-540" as="sourcePoint" />
            <mxPoint x="1427.0000000000002" y="-540" as="targetPoint" />
          </mxGeometry>
        </mxCell>
      </root>
    </mxGraphModel>
  </diagram>
</mxfile>
